<?xml version="1.0" encoding="UTF-8"?>
<svg version="1.1" xmlns="http://www.w3.org/2000/svg" width="512" height="512">
<path d="M0 0 C1.01790619 0.00215515 2.03581238 0.0043103 3.08456421 0.00653076 C17.69363523 0.05620146 32.02575853 0.30709809 46.375 3.3125 C47.34985352 3.51117676 48.32470703 3.70985352 49.32910156 3.91455078 C97.37402273 13.96468706 141.56847595 35.56129574 176.87475586 69.90942383 C178.93859956 71.83959628 181.16756034 73.55032168 183.375 75.3125 C184.47309154 76.46716769 185.5374861 77.65499631 186.5625 78.875 C188.5262211 81.18501171 190.50144722 83.44563755 192.58984375 85.64453125 C227.92568829 122.92756982 248.89418418 173.81890493 255.375 224.3125 C255.46232895 224.97970566 255.5496579 225.64691132 255.63963318 226.33433533 C256.33587491 232.05070476 256.54956164 237.68992632 256.578125 243.4453125 C256.58518463 244.39166061 256.59224426 245.33800873 256.59951782 246.31303406 C256.82741099 285.82902112 256.82741099 285.82902112 253.375 302.3125 C253.07698486 303.77478027 253.07698486 303.77478027 252.77294922 305.26660156 C242.92075995 352.36523222 221.93479251 395.46985483 188.8828125 430.59375 C187.10997467 432.51570503 185.43556591 434.42927239 183.78515625 436.44921875 C181.83630074 438.76447173 179.99189028 440.69051185 177.6875 442.625 C174.67818744 445.18207821 171.76508138 447.80906708 168.875 450.5 C135.61747051 480.36597016 93.50517529 499.70708716 49.9375 508.625 C49.21860596 508.77235596 48.49971191 508.91971191 47.7590332 509.0715332 C33.08339502 511.86090125 18.55831162 512.66142619 3.64770508 512.62817383 C0.70811513 512.6250221 -2.2304558 512.64854926 -5.16992188 512.67382812 C-18.54306192 512.71848737 -31.43916711 511.51301542 -44.625 509.3125 C-46.33055054 509.03031616 -46.33055054 509.03031616 -48.07055664 508.74243164 C-50.6662622 508.27617402 -53.23774939 507.7574418 -55.8125 507.1875 C-57.20142456 506.88054199 -57.20142456 506.88054199 -58.6184082 506.56738281 C-101.81787364 496.52249509 -141.64439095 475.17908436 -173.90625 444.8203125 C-175.82820503 443.04747467 -177.74177239 441.37306591 -179.76171875 439.72265625 C-182.07697173 437.77380074 -184.00301185 435.92939028 -185.9375 433.625 C-188.49457821 430.61568744 -191.12156708 427.70258138 -193.8125 424.8125 C-223.67847016 391.55497051 -243.01958716 349.44267529 -251.9375 305.875 C-252.08485596 305.15610596 -252.23221191 304.43721191 -252.3840332 303.6965332 C-255.35789102 288.05024321 -255.99799808 272.57681915 -255.9375 256.6875 C-255.93534485 255.66926147 -255.9331897 254.65102295 -255.93096924 253.60192871 C-255.88127396 238.98002576 -255.57561242 224.68116068 -252.625 210.3125 C-252.42632324 209.29994141 -252.22764648 208.28738281 -252.02294922 207.24414062 C-242.44660799 159.35526119 -220.15243333 114.88901097 -186.02807617 79.81274414 C-184.09790372 77.74890044 -182.38717832 75.51993966 -180.625 73.3125 C-179.47033231 72.21440846 -178.28250369 71.1500139 -177.0625 70.125 C-174.75248829 68.1612789 -172.49186245 66.18605278 -170.29296875 64.09765625 C-137.84433247 33.34372602 -94.77023809 13.81543336 -51.4375 4.5625 C-50.51267822 4.36366211 -49.58785645 4.16482422 -48.63500977 3.95996094 C-32.42831484 0.66808631 -16.49462105 -0.0628085 0 0 Z M95.75 156.75 C94.68265625 157.81831055 94.68265625 157.81831055 93.59375 158.90820312 C90.44231557 162.08561092 87.3930869 165.28975589 84.49462891 168.69946289 C79.40533815 174.54123724 73.8597939 179.93817822 68.36669922 185.39596558 C66.33708585 187.41267306 64.31073742 189.43261221 62.28515625 191.45336914 C57.25651298 196.46872945 52.22241209 201.47860008 47.18847656 206.48864746 C42.92395727 210.73335288 38.66154898 214.98015742 34.40185547 219.22970581 C32.41710014 221.20803614 30.42932977 223.18330129 28.44140625 225.15844727 C23.10002002 230.47826914 17.81584409 235.77608437 12.92871094 241.52279663 C9.93808221 244.96767057 6.70726976 248.18395608 3.5 251.42578125 C2.77184082 252.16201218 2.04368164 252.8982431 1.29345703 253.65678406 C-0.23453785 255.1985051 -1.76401683 256.73875656 -3.29492188 258.27758789 C-4.85278942 259.84704476 -6.4061616 261.42097617 -7.95507812 262.99926758 C-10.21030726 265.29715161 -12.47848467 267.58150854 -14.75 269.86328125 C-15.43562012 270.56640945 -16.12124023 271.26953766 -16.82763672 271.99397278 C-21.78360138 276.9278885 -26.72406229 280.73612772 -34.0625 280.75 C-34.74183594 280.76933594 -35.42117187 280.78867187 -36.12109375 280.80859375 C-43.07721322 279.43039223 -48.16640721 275.34905788 -52.95825195 270.35400391 C-53.53671875 269.76808975 -54.11518555 269.1821756 -54.71118164 268.57850647 C-55.95581064 267.31542781 -57.19582108 266.04778421 -58.43157387 264.77602005 C-60.3953386 262.75608825 -62.37215709 260.74977734 -64.35282898 258.74642944 C-69.26968569 253.76840417 -74.166461 248.77081043 -79.05871582 243.76861572 C-83.19748993 239.53722886 -87.34628512 235.31620638 -91.50975609 231.10911179 C-93.44461754 229.14586674 -95.36409429 227.16841074 -97.28352356 225.19009399 C-106.61716484 215.68618358 -115.38375153 208.29208284 -129.25 208 C-139.15094169 208.07204427 -147.4506577 211.2998559 -154.625 218.25 C-162.25348487 226.32721928 -166.00633746 234.71498356 -165.83984375 245.8515625 C-164.68998087 259.02271917 -156.83736838 267.54867058 -147.8527832 276.50463867 C-146.86275402 277.50202072 -145.87334541 278.50001907 -144.88450623 279.49858093 C-142.21368314 282.19149876 -139.53341879 284.87482117 -136.85057855 287.5557611 C-134.60415564 289.80206376 -132.36210179 292.05270345 -130.11989945 294.30321771 C-124.82629633 299.61601101 -119.52460921 304.92064161 -114.21801758 310.22045898 C-108.76006592 315.67177074 -103.3170392 321.13766925 -97.8809827 326.6108076 C-93.19763649 331.32492747 -88.50459521 336.02924388 -83.8038947 340.72605878 C-81.00335226 343.52454193 -78.20664327 346.32659511 -75.41945839 349.13838768 C-72.79658459 351.78365352 -70.16173552 354.41639682 -67.51755714 357.0403614 C-66.09893547 358.45399153 -64.69255822 359.87987688 -63.28671265 361.30621338 C-54.47579532 370.00292642 -45.56124842 374.48506959 -33.25 375.625 C-18.0662344 374.31605469 -8.2536191 366.59123754 2.0625 355.9375 C3.40924805 354.57625 3.40924805 354.57625 4.78320312 353.1875 C8.50549088 349.40249238 12.14666302 345.59251677 15.60864258 341.56787109 C19.7148504 336.84940043 24.11878656 332.46107068 28.5625 328.0625 C29.85450317 326.77617676 29.85450317 326.77617676 31.17260742 325.46386719 C34.82513983 321.82755061 38.48363635 318.19725629 42.14160156 314.56640625 C44.82565156 311.90052403 47.50663241 309.2315819 50.1875 306.5625 C51.00436279 305.75393555 51.82122559 304.94537109 52.6628418 304.11230469 C56.12728484 300.66257647 59.51997292 297.20757819 62.69726562 293.49023438 C67.10564824 288.36822821 71.92324554 283.65277113 76.71653748 278.89579773 C78.44372676 277.18155414 80.1676132 275.46404698 81.89074707 273.74572754 C86.16809807 269.48163523 90.45091759 265.22304939 94.73358154 260.96429443 C98.36397448 257.35374298 101.99223537 253.74107358 105.61778259 250.12565613 C107.3033829 248.44646365 108.99200141 246.77034924 110.68078613 245.09436035 C115.55164724 240.2464329 120.30704082 235.36131095 124.7744751 230.13342285 C127.64742356 226.86485921 130.77245055 223.85293088 133.8828125 220.8125 C135.29586074 219.41695804 136.70861234 218.02111567 138.12109375 216.625 C140.31428103 214.46277189 142.50971679 212.30298712 144.71044922 210.1484375 C146.85813494 208.04333231 148.99604341 205.92867773 151.1328125 203.8125 C151.78500763 203.17892578 152.43720276 202.54535156 153.10916138 201.89257812 C161.43009662 193.61817555 165.49257663 185.12824983 166.8125 173.4375 C166.32284814 163.50164774 162.4510275 154.25297142 155.375 147.3125 C147.8729078 140.75777098 138.79117499 136.4664 128.59765625 136.96875 C114.19962376 139.19551074 105.66011524 146.66745601 95.75 156.75 Z " fill="#000000" transform="translate(255.625,-0.3125)"/>
</svg>
