<?xml version="1.0" encoding="UTF-8"?>
<svg version="1.1" xmlns="http://www.w3.org/2000/svg" width="512" height="512">
<path d="M0 0 C2.32441815 3.48662723 2.24401741 4.82577923 2.22705078 8.94018555 C2.22682419 10.77174446 2.22682419 10.77174446 2.22659302 12.64030457 C2.21627045 13.95912125 2.20594788 15.27793793 2.1953125 16.63671875 C2.19158161 18.00006401 2.188735 19.36341196 2.18673706 20.72676086 C2.17910653 24.31234154 2.15946315 27.89775979 2.1373291 31.48327637 C2.11685811 35.14312544 2.10773267 38.80300079 2.09765625 42.46289062 C2.0762166 49.64200107 2.04208779 56.82097776 2 64 C2.57003754 64.07713226 3.14007507 64.15426453 3.72738647 64.23373413 C25.16687672 67.15630658 25.16687672 67.15630658 35.625 69.625 C36.69492188 69.87588379 37.76484375 70.12676758 38.8671875 70.38525391 C57.89566008 75.01791257 76.37436642 81.46790035 94 90 C94.680625 90.32323242 95.36125 90.64646484 96.0625 90.97949219 C117.56682319 101.21237325 137.16305518 114.21932496 155 130 C156.28777344 131.12148438 156.28777344 131.12148438 157.6015625 132.265625 C167.99344223 141.43687123 177.40590993 151.12085923 186 162 C186.94305227 163.14379439 187.88849416 164.28562148 188.8359375 165.42578125 C196.32745877 174.49952155 202.89678429 183.94312882 209 194 C209.47405273 194.78052734 209.94810547 195.56105469 210.43652344 196.36523438 C231.52367067 231.44004841 245.92184052 269.40918195 256.625 308.8125 C257.01510254 310.20795044 257.01510254 310.20795044 257.41308594 311.6315918 C258.74792822 316.74612048 259.36573997 320.75447137 258 326 C255.43724531 328.85564095 253.82662066 329.84171094 250.0625 330.5625 C242.40294155 329.15564232 238.66151334 322.01640063 234.36328125 316.12890625 C231.48253586 312.31489458 228.35449905 308.81253617 225.1171875 305.30078125 C223.19792507 303.21508832 221.3429487 301.09043777 219.5 298.9375 C213.14900789 291.68338515 206.31549112 285.24852179 198.78515625 279.23046875 C197.02344243 277.81961519 195.27864618 276.3871378 193.55859375 274.92578125 C180.10448475 263.53505673 165.30036676 253.71994587 150 245 C149.34451172 244.61956543 148.68902344 244.23913086 148.01367188 243.84716797 C106.87004607 219.9897148 62.47569728 205.22715776 15.67578125 197.32421875 C14.33870254 197.09640046 13.00166617 196.86833352 11.66467285 196.64001465 C8.44352015 196.0909132 5.22197011 195.54428083 2 195 C2.01110306 195.84302673 2.02220612 196.68605347 2.03364563 197.55462646 C2.13383771 205.50000901 2.20995963 213.44517936 2.25906086 221.39104843 C2.28515327 225.47614238 2.32054342 229.56071432 2.37719727 233.64550781 C2.43153189 237.58776222 2.46142322 241.52951462 2.47438622 245.47211456 C2.4836237 246.97607579 2.50166295 248.48000957 2.52865028 249.98375702 C2.56496389 252.09101168 2.56994498 254.19619364 2.56762695 256.30371094 C2.57873001 257.50284119 2.58983307 258.70197144 2.60127258 259.93743896 C2 263 2 263 -0.34797668 265.38995361 C-3.60036683 267.36448339 -5.25317683 267.57080509 -9 267 C-11.5 265.63671875 -11.5 265.63671875 -14 263.6875 C-15.42892578 262.58921875 -15.42892578 262.58921875 -16.88671875 261.46875 C-17.91410156 260.6540625 -18.94148437 259.839375 -20 259 C-21.10994343 258.13447502 -22.22064029 257.26991548 -23.33203125 256.40625 C-26.29977722 254.0926349 -29.25246952 251.76053955 -32.20166016 249.42333984 C-35.12793051 247.10727194 -38.06437187 244.80418648 -41 242.5 C-42.16671752 241.58339806 -43.33338414 240.66673133 -44.5 239.75 C-45.0775 239.29625 -45.655 238.8425 -46.25 238.375 C-57.33333333 229.66666667 -68.41666667 220.95833333 -79.5 212.25 C-80.07741943 211.79633057 -80.65483887 211.34266113 -81.24975586 210.87524414 C-82.4173041 209.95784991 -83.58478449 209.04036933 -84.75219727 208.12280273 C-87.6548279 205.84155755 -90.55859274 203.56178786 -93.46484375 201.28515625 C-98.81695098 197.08999658 -104.15642325 192.8817142 -109.45507812 188.61914062 C-115.38671411 183.84763534 -121.37336132 179.16461867 -127.4375 174.5625 C-133.81220272 169.72329374 -140.05817361 164.75065898 -146.24609375 159.67529297 C-150.4164385 156.26196548 -154.6459178 152.9465687 -158.9375 149.6875 C-160.95967849 148.12674129 -162.98060477 146.56435817 -165 145 C-165.92554688 144.30261719 -166.85109375 143.60523438 -167.8046875 142.88671875 C-173.5634615 138.26714147 -173.5634615 138.26714147 -174.72265625 134.90234375 C-174.875 132.8125 -174.875 132.8125 -174 129 C-166.03898024 120.21494486 -155.98068963 113.16617514 -146.56152344 106.02929688 C-141.62779944 102.27922906 -136.78991858 98.43169518 -132 94.5 C-126.58136088 90.05374864 -121.08661901 85.73323192 -115.5 81.5 C-109.14045704 76.68090875 -102.91538482 71.72404238 -96.74267578 66.66845703 C-91.63843626 62.49571274 -86.44742946 58.45679264 -81.20703125 54.45703125 C-77.80145877 51.8559742 -74.42960435 49.21308007 -71.0625 46.5625 C-70.19020752 45.87583252 -70.19020752 45.87583252 -69.30029297 45.17529297 C-68.1220986 44.24740379 -66.94403901 43.31934346 -65.76611328 42.39111328 C-62.84628952 40.09125763 -59.92298107 37.79584055 -57 35.5 C-55.83331639 34.5833549 -54.66664973 33.66668823 -53.5 32.75 C-51.16666667 30.91666667 -48.83333333 29.08333333 -46.5 27.25 C-45.92233887 26.79608887 -45.34467773 26.34217773 -44.74951172 25.87451172 C-43.58460823 24.95930007 -42.41956947 24.04426056 -41.25439453 23.12939453 C-38.30960955 20.81686979 -35.36734815 18.50125766 -32.4296875 16.1796875 C-26.75774111 11.70081373 -21.06937615 7.24442122 -15.3125 2.875 C-14.35988281 2.15054688 -13.40726563 1.42609375 -12.42578125 0.6796875 C-7.75186573 -2.55667912 -5.19807382 -1.89020866 0 0 Z " fill="#000000" transform="translate(214,89)"/>
</svg>
